<svg version="1.1" xmlns="http://www.w3.org/2000/svg" viewBox="0 0 988.0681818181813 439.63636363636306" width="988.0681818181813" height="439.63636363636306">
  <!-- svg-source:excalidraw -->
  
  <defs>
    <style class="style-fonts">
      @font-face {
        font-family: "Virgil";
        src: url("https://excalidraw.com/Virgil.woff2");
      }
      @font-face {
        font-family: "Cascadia";
        src: url("https://excalidraw.com/Cascadia.woff2");
      }
    </style>
  </defs>
  <rect x="0" y="0" width="988.0681818181813" height="439.63636363636306" fill="#ffffff"></rect><g stroke-linecap="round" transform="translate(10 88.4318181818171) rotate(0 76.875 32.5)"><path d="M16.25 0 M16.25 0 C45.61 -1.12, 74.83 0.22, 137.5 0 M16.25 0 C51.28 0.4, 88.29 -0.51, 137.5 0 M137.5 0 C148.34 -1.71, 154.41 6.68, 153.75 16.25 M137.5 0 C149.82 2.06, 154.38 6.2, 153.75 16.25 M153.75 16.25 C153.67 25.8, 154.73 40.47, 153.75 48.75 M153.75 16.25 C153.65 28.3, 153.76 42.3, 153.75 48.75 M153.75 48.75 C155.1 59.29, 146.82 65.62, 137.5 65 M153.75 48.75 C155.58 58.88, 149.44 63.18, 137.5 65 M137.5 65 C98.5 63.11, 55.06 63.03, 16.25 65 M137.5 65 C110.6 65, 85.59 65.63, 16.25 65 M16.25 65 C5.89 65.51, -1.64 61.17, 0 48.75 M16.25 65 C6.92 63.59, -1.55 61.59, 0 48.75 M0 48.75 C-0.3 37.19, 1.61 26.3, 0 16.25 M0 48.75 C0.29 39.94, 1.08 31.51, 0 16.25 M0 16.25 C1.66 4.13, 6.74 -1.6, 16.25 0 M0 16.25 C0.87 4.23, 7.24 1.21, 16.25 0" stroke="#000000" stroke-width="1" fill="none"></path></g><g transform="translate(27.375 108.6818181818171) rotate(0 59.5 12)"><text x="59.5" y="17" font-family="Virgil, Segoe UI Emoji" font-size="20px" fill="#000000" text-anchor="middle" style="white-space: pre;" direction="ltr">Source Files</text></g><g stroke-linecap="round" transform="translate(10.625 162.1818181818171) rotate(0 76.875 32.5)"><path d="M16.25 0 M16.25 0 C60.24 -0.28, 103.16 1.61, 137.5 0 M16.25 0 C43.96 -1.07, 74.07 -1.27, 137.5 0 M137.5 0 C149.09 1.49, 153.82 6.53, 153.75 16.25 M137.5 0 C147.28 -1.84, 154.78 6.82, 153.75 16.25 M153.75 16.25 C153.78 30.62, 152.39 41.47, 153.75 48.75 M153.75 16.25 C154.76 25.52, 153.52 36.5, 153.75 48.75 M153.75 48.75 C155.37 58.51, 148.93 65.63, 137.5 65 M153.75 48.75 C152.98 57.36, 146.49 64.88, 137.5 65 M137.5 65 C105.64 62.97, 71.38 64.25, 16.25 65 M137.5 65 C98.39 64.42, 60.86 64.27, 16.25 65 M16.25 65 C5.49 65.84, -0.58 59.26, 0 48.75 M16.25 65 C7.3 64.24, -2.17 60.69, 0 48.75 M0 48.75 C0.49 38.96, -0.12 29.53, 0 16.25 M0 48.75 C1.17 38.38, 0.59 27.86, 0 16.25 M0 16.25 C1.82 4.33, 3.73 -0.13, 16.25 0 M0 16.25 C0.37 5.79, 6.98 -0.52, 16.25 0" stroke="#000000" stroke-width="1" fill="none"></path></g><g transform="translate(52.5 182.4318181818171) rotate(0 35 12)"><text x="35" y="17" font-family="Virgil, Segoe UI Emoji" font-size="20px" fill="#000000" text-anchor="middle" style="white-space: pre;" direction="ltr">Assets</text></g><g stroke-linecap="round" transform="translate(13.125 238.4318181818171) rotate(0 76.875 32.5)"><path d="M16.25 0 M16.25 0 C53.96 -0.82, 90.88 0.87, 137.5 0 M16.25 0 C61.37 0.5, 107.39 -1, 137.5 0 M137.5 0 C146.7 0.76, 152.98 5.43, 153.75 16.25 M137.5 0 C149.88 -0.87, 152.9 4.82, 153.75 16.25 M153.75 16.25 C154.06 28.86, 151.9 41.13, 153.75 48.75 M153.75 16.25 C153.46 25.25, 153.97 34.65, 153.75 48.75 M153.75 48.75 C155.54 59.42, 146.48 63.14, 137.5 65 M153.75 48.75 C152.92 61.74, 150.04 65.71, 137.5 65 M137.5 65 C107.06 65.92, 74.65 65.62, 16.25 65 M137.5 65 C110.32 66.73, 82.14 65.23, 16.25 65 M16.25 65 C3.49 63.89, -1.23 58.34, 0 48.75 M16.25 65 C7.25 67.06, 2.22 61.61, 0 48.75 M0 48.75 C1.48 41.4, 0.58 32.14, 0 16.25 M0 48.75 C0.74 40.04, 0.62 30.65, 0 16.25 M0 16.25 C1.95 5.84, 3.6 0.06, 16.25 0 M0 16.25 C0.22 4.73, 7.39 -2.13, 16.25 0" stroke="#000000" stroke-width="1" fill="none"></path></g><g transform="translate(44 258.6818181818171) rotate(0 46 12)"><text x="46" y="17" font-family="Virgil, Segoe UI Emoji" font-size="20px" fill="#000000" text-anchor="middle" style="white-space: pre;" direction="ltr">Makefiles</text></g><g stroke-linecap="round" transform="translate(344.8295454545455 135.02272727272612) rotate(0 168.5 70)"><path d="M32 0 M32 0 C121.13 0.08, 214.31 -1.27, 305 0 M32 0 C125.71 -0.84, 219.06 -1.14, 305 0 M305 0 C327.16 0.7, 336.55 11.46, 337 32 M305 0 C328.21 -1.97, 337.24 9.29, 337 32 M337 32 C335.95 50.33, 337.34 71.75, 337 108 M337 32 C336.35 54.86, 336.4 76.69, 337 108 M337 108 C337.33 130.63, 326.39 139.02, 305 140 M337 108 C338.95 131.21, 325.22 138.18, 305 140 M305 140 C218.33 137.35, 128.92 137.8, 32 140 M305 140 C246.16 138.67, 185.97 138.85, 32 140 M32 140 C9.25 141.42, -0.33 130.81, 0 108 M32 140 C9.15 140.64, -0.74 128.48, 0 108 M0 108 C-1.28 78.99, -0.63 48.81, 0 32 M0 108 C-0.04 86.11, -0.25 64.61, 0 32 M0 32 C0.31 8.83, 12.02 -0.95, 32 0 M0 32 C-2.03 8.68, 10.6 1.72, 32 0" stroke="#000000" stroke-width="1" fill="none"></path></g><g transform="translate(445.8295454545455 192.77272727272612) rotate(0 67.5 12)"><text x="67.5" y="17" font-family="Virgil, Segoe UI Emoji" font-size="20px" fill="#000000" text-anchor="middle" style="white-space: pre;" direction="ltr">Build-Function</text></g><g stroke-linecap="round"><g transform="translate(164.75 114.07640959179844) rotate(0 89.99886914035989 45.899729135908274)"><path d="M-0.32 -0.53 C29.26 14.97, 148.21 77.06, 178.11 92.33 M1.72 1.81 C31.6 17.01, 150.88 75.52, 180.31 90.57" stroke="#000000" stroke-width="1" fill="none"></path></g><g transform="translate(164.75 114.07640959179844) rotate(0 89.99886914035989 45.899729135908274)"><path d="M149.63 85.53 C162.21 88.42, 170.7 89.22, 181.78 91.36 M151.27 87.35 C157.55 87.96, 166.49 88.55, 180.41 90.72" stroke="#000000" stroke-width="1" fill="none"></path></g><g transform="translate(164.75 114.07640959179844) rotate(0 89.99886914035989 45.899729135908274)"><path d="M158.8 67.18 C168.03 76.54, 173.27 83.85, 181.78 91.36 M160.44 68.99 C164.43 74.29, 171.01 79.61, 180.41 90.72" stroke="#000000" stroke-width="1" fill="none"></path></g></g><mask></mask><g stroke-linecap="round"><g transform="translate(162.5 190.9318181818171) rotate(0 95.36487226484343 7.644096257407227)"><path d="M0.43 0.09 C32.32 2.61, 159.82 13.59, 191.53 16.19 M-0.8 -0.91 C30.94 1.83, 158.98 12.26, 190.73 14.7" stroke="#000000" stroke-width="1" fill="none"></path></g><g transform="translate(162.5 190.9318181818171) rotate(0 95.36487226484343 7.644096257407227)"><path d="M161.97 23.16 C172.82 19.21, 181.09 16.95, 189.9 14.89 M162.71 21.72 C169.03 20.06, 175.78 18.93, 191.2 15.53" stroke="#000000" stroke-width="1" fill="none"></path></g><g transform="translate(162.5 190.9318181818171) rotate(0 95.36487226484343 7.644096257407227)"><path d="M163.6 2.7 C174.12 5.18, 181.87 9.35, 189.9 14.89 M164.34 1.26 C170.26 4.51, 176.63 8.27, 191.2 15.53" stroke="#000000" stroke-width="1" fill="none"></path></g></g><mask></mask><g stroke-linecap="round"><g transform="translate(170 275.6225472733995) rotate(0 87.15842736971314 -32.90981920257332)"><path d="M0.48 -0.57 C29.42 -11.35, 144.13 -54.88, 172.85 -65.6 M-0.73 1.74 C28.65 -9.33, 145.73 -56.16, 175.05 -67.56" stroke="#000000" stroke-width="1" fill="none"></path></g><g transform="translate(170 275.6225472733995) rotate(0 87.15842736971314 -32.90981920257332)"><path d="M151.65 -49.29 C158.5 -54.07, 164.94 -57.11, 174.96 -67.6 M152.24 -47.82 C159.1 -55.15, 167.27 -60.69, 175.52 -67.43" stroke="#000000" stroke-width="1" fill="none"></path></g><g transform="translate(170 275.6225472733995) rotate(0 87.15842736971314 -32.90981920257332)"><path d="M144.11 -68.38 C152.57 -68.74, 160.76 -67.33, 174.96 -67.6 M144.7 -66.91 C154 -68.09, 164.6 -67.46, 175.52 -67.43" stroke="#000000" stroke-width="1" fill="none"></path></g></g><mask></mask><g stroke-linecap="round" transform="translate(13.522727272727366 352.63636363636306) rotate(0 104 38.5)"><path d="M19.25 0 M19.25 0 C77.49 -1.43, 134.04 -1.47, 188.75 0 M19.25 0 C61.37 -1.4, 102.47 -1.2, 188.75 0 M188.75 0 C200.38 -0.25, 207.35 8.13, 208 19.25 M188.75 0 C203.12 1.75, 207.58 4.13, 208 19.25 M208 19.25 C209.26 30.95, 207.69 44.88, 208 57.75 M208 19.25 C207.66 28.99, 208.16 37.04, 208 57.75 M208 57.75 C207.7 70.14, 201.82 76.59, 188.75 77 M208 57.75 C209.73 68.9, 200.89 77.59, 188.75 77 M188.75 77 C125.35 77.57, 61.23 77.8, 19.25 77 M188.75 77 C125.68 77.73, 63.97 78.18, 19.25 77 M19.25 77 C5.08 75.47, 0.28 70.56, 0 57.75 M19.25 77 C5.87 79.26, -1.62 72.33, 0 57.75 M0 57.75 C-0.84 45.68, 2.04 29.73, 0 19.25 M0 57.75 C1.03 44.62, -0.66 32.1, 0 19.25 M0 19.25 C-0.5 4.73, 5.34 -0.9, 19.25 0 M0 19.25 C-1.29 7.58, 5.47 -0.23, 19.25 0" stroke="#000000" stroke-width="1" fill="none"></path></g><g transform="translate(38.522727272727366 379.13636363636306) rotate(0 79 12)"><text x="79" y="17" font-family="Virgil, Segoe UI Emoji" font-size="20px" fill="#000000" text-anchor="middle" style="white-space: pre;" direction="ltr">Build-Programme</text></g><g stroke-linecap="round"><g transform="translate(223.52272727272725 388.090909090909) rotate(0 64.14842780818316 -89.40490755428686)"><path d="M-0.9 0.51 C20.78 -29.23, 107.79 -149.59, 129.19 -179.32 M0.83 -0.27 C22.51 -29.82, 107.85 -149.03, 128.78 -178.38" stroke="#000000" stroke-width="1" fill="none"></path></g><g transform="translate(223.52272727272725 388.090909090909) rotate(0 64.14842780818316 -89.40490755428686)"><path d="M121.57 -147.79 C120.89 -157.11, 125.17 -160.71, 126.87 -177.74 M121.02 -149.27 C122.21 -155.02, 124.42 -161.85, 128.85 -178.3" stroke="#000000" stroke-width="1" fill="none"></path></g><g transform="translate(223.52272727272725 388.090909090909) rotate(0 64.14842780818316 -89.40490755428686)"><path d="M104.88 -159.72 C107.93 -166.19, 116.02 -167.06, 126.87 -177.74 M104.33 -161.21 C108.93 -164.58, 114.66 -168.89, 128.85 -178.3" stroke="#000000" stroke-width="1" fill="none"></path></g></g><mask></mask><g transform="translate(27.15909090909099 10) rotate(0 27.5 13)"><text x="0" y="18" font-family="Virgil, Segoe UI Emoji" font-size="20px" fill="#000000" text-anchor="start" style="white-space: pre;" direction="ltr">Input</text></g><g stroke-linecap="round"><g transform="translate(683.5227272727266 196.2203335336062) rotate(0 52.79672841223123 -64.79955625983325)"><path d="M-0.38 -0.01 C17.44 -21.37, 88.37 -106.33, 105.97 -128.03 M1.63 -1.07 C19.33 -22.74, 87.16 -108.18, 104.82 -129.58" stroke="#000000" stroke-width="1" fill="none"></path></g><g transform="translate(683.5227272727266 196.2203335336062) rotate(0 52.79672841223123 -64.79955625983325)"><path d="M95.06 -101.86 C99.04 -109.37, 97.56 -114.69, 103.57 -128.33 M96.08 -100.84 C98.74 -109.52, 100.01 -116.89, 104.79 -128.77" stroke="#000000" stroke-width="1" fill="none"></path></g><g transform="translate(683.5227272727266 196.2203335336062) rotate(0 52.79672841223123 -64.79955625983325)"><path d="M79.1 -114.75 C86.65 -119.33, 88.74 -121.77, 103.57 -128.33 M80.11 -113.73 C87.42 -118.61, 93.29 -122.26, 104.79 -128.77" stroke="#000000" stroke-width="1" fill="none"></path></g></g><mask></mask><g stroke-linecap="round" transform="translate(798.0681818181815 25.363636363635578) rotate(0 85.45454545454538 40.909090909090764)"><path d="M20.45 0 M20.45 0 C65.22 -0.61, 108.14 -1.24, 150.45 0 M20.45 0 C69.71 -0.99, 120.29 0.02, 150.45 0 M150.45 0 C165.15 -0.01, 170.27 7.82, 170.91 20.45 M150.45 0 C163.6 -2.2, 171 8.56, 170.91 20.45 M170.91 20.45 C169.37 30.43, 169.41 43.28, 170.91 61.36 M170.91 20.45 C171.94 29.09, 171 36.77, 170.91 61.36 M170.91 61.36 C171.77 75.79, 165.37 80.34, 150.45 81.82 M170.91 61.36 C172.05 75.32, 165.16 83.04, 150.45 81.82 M150.45 81.82 C110.01 82.3, 68.78 81.16, 20.45 81.82 M150.45 81.82 C116.63 83.23, 82.01 82.29, 20.45 81.82 M20.45 81.82 C5.03 81.92, 0.62 75.83, 0 61.36 M20.45 81.82 C7.37 83.97, 0.67 75.7, 0 61.36 M0 61.36 C-0.4 51.11, 1 45.45, 0 20.45 M0 61.36 C0.14 51.87, -0.19 41.76, 0 20.45 M0 20.45 C0.75 5.94, 8.52 -0.52, 20.45 0 M0 20.45 C1.69 8.32, 4.56 0.12, 20.45 0" stroke="#000000" stroke-width="1" fill="none"></path></g><g transform="translate(844.5227272727268 54.022727272726115) rotate(0 39 12)"><text x="39" y="17" font-family="Virgil, Segoe UI Emoji" font-size="20px" fill="#000000" text-anchor="middle" style="white-space: pre;" direction="ltr">Binaries</text></g><g stroke-linecap="round" transform="translate(793.5227272727263 146.27272727272657) rotate(0 85.45454545454538 40.909090909090764)"><path d="M20.45 0 M20.45 0 C51.07 0.59, 84.12 -0.04, 150.45 0 M20.45 0 C71.33 0.47, 123.83 1.04, 150.45 0 M150.45 0 C165.69 -0.2, 170.75 5.8, 170.91 20.45 M150.45 0 C165.27 -0.35, 170.25 5.42, 170.91 20.45 M170.91 20.45 C170.8 32.1, 172.22 44.4, 170.91 61.36 M170.91 20.45 C170.21 32.74, 171.99 47.27, 170.91 61.36 M170.91 61.36 C171.98 73.28, 163.09 82.55, 150.45 81.82 M170.91 61.36 C170.1 75.91, 165.25 82.73, 150.45 81.82 M150.45 81.82 C123.65 84.5, 98.01 84.17, 20.45 81.82 M150.45 81.82 C100.56 81.01, 49.85 82.38, 20.45 81.82 M20.45 81.82 C8.16 80.75, -0.23 73.72, 0 61.36 M20.45 81.82 C5.48 81.16, -0.42 75.71, 0 61.36 M0 61.36 C-0.64 50.26, -1.02 35.17, 0 20.45 M0 61.36 C0.93 50.01, -0.1 40.81, 0 20.45 M0 20.45 C-0.19 6.93, 7.73 -0.03, 20.45 0 M0 20.45 C0.21 8.98, 6.95 0.36, 20.45 0" stroke="#000000" stroke-width="1" fill="none"></path></g><g transform="translate(859.4772727272718 175.18181818181756) rotate(0 19.5 12)"><text x="19.5" y="17" font-family="Virgil, Segoe UI Emoji" font-size="20px" fill="#000000" text-anchor="middle" style="white-space: pre;" direction="ltr">Libs</text></g><g stroke-linecap="round"><g transform="translate(682.6136363636358 194.45454545454504) rotate(0 50.47853577235219 -1.5287311588303965)"><path d="M-0.88 -0.01 C16.08 -0.59, 84.83 -2.53, 101.84 -3.05 M0.86 -1.06 C17.74 -1.47, 84.76 -1.34, 101.38 -1.47" stroke="#000000" stroke-width="1" fill="none"></path></g><g transform="translate(682.6136363636358 194.45454545454504) rotate(0 50.47853577235219 -1.5287311588303965)"><path d="M73.2 10.41 C81.91 6.39, 90.35 1.24, 102.52 -1.74 M72.71 8.26 C84.81 4.21, 94.94 0.77, 100.72 -0.95" stroke="#000000" stroke-width="1" fill="none"></path></g><g transform="translate(682.6136363636358 194.45454545454504) rotate(0 50.47853577235219 -1.5287311588303965)"><path d="M73.15 -10.11 C81.95 -7.86, 90.41 -6.76, 102.52 -1.74 M72.66 -12.26 C84.84 -8.27, 94.99 -3.67, 100.72 -0.95" stroke="#000000" stroke-width="1" fill="none"></path></g></g><mask></mask><g stroke-linecap="round" transform="translate(798.0681818181813 248.99999999999955) rotate(0 90 45.45454545454572)"><path d="M22.73 0 M22.73 0 C70.87 2.2, 116.66 -1.25, 157.27 0 M22.73 0 C69.76 -1.87, 117.8 -0.13, 157.27 0 M157.27 0 C172.27 -0.95, 180.99 8.81, 180 22.73 M157.27 0 C171.69 -2.1, 180.68 9.41, 180 22.73 M180 22.73 C177.96 38.15, 179.25 52.36, 180 68.18 M180 22.73 C180.87 39.96, 179.78 54.36, 180 68.18 M180 68.18 C180.22 82.25, 174.05 90.92, 157.27 90.91 M180 68.18 C182.11 82.89, 171.64 90.74, 157.27 90.91 M157.27 90.91 C120.53 90.47, 84.3 92.42, 22.73 90.91 M157.27 90.91 C121.89 91.61, 85.88 92.27, 22.73 90.91 M22.73 90.91 C7.37 92, 0.44 82.19, 0 68.18 M22.73 90.91 C6.61 90.45, 1.11 84.63, 0 68.18 M0 68.18 C-1.37 53.41, 0.03 36.08, 0 22.73 M0 68.18 C-0.74 56, -0.31 45.62, 0 22.73 M0 22.73 C-0.85 8.02, 7.07 -1.38, 22.73 0 M0 22.73 C-0.63 9.17, 5.56 1.79, 22.73 0" stroke="#000000" stroke-width="1" fill="none"></path></g><g transform="translate(822.0681818181813 282.20454545454504) rotate(0 66 12)"><text x="66" y="17" font-family="Virgil, Segoe UI Emoji" font-size="20px" fill="#000000" text-anchor="middle" style="white-space: pre;" direction="ltr">Alles mögliche</text></g><g stroke-linecap="round"><g transform="translate(687.1590909090903 202.58886764595627) rotate(0 52.56106946349826 43.041515370560774)"><path d="M-0.72 0.18 C16.91 14.63, 88.2 72.61, 105.84 86.86 M1.1 -0.77 C18.6 13.32, 87.92 70.49, 105.1 85.06" stroke="#000000" stroke-width="1" fill="none"></path></g><g transform="translate(687.1590909090903 202.58886764595627) rotate(0 52.56106946349826 43.041515370560774)"><path d="M77.17 75.52 C86.61 77.6, 93.28 80.64, 106.09 85.29 M76.77 74.49 C87.32 79.79, 99.16 83.07, 104.87 84.74" stroke="#000000" stroke-width="1" fill="none"></path></g><g transform="translate(687.1590909090903 202.58886764595627) rotate(0 52.56106946349826 43.041515370560774)"><path d="M90.32 59.77 C95.73 66.61, 98.36 74.5, 106.09 85.29 M89.91 58.74 C95.47 70.08, 102.25 79.43, 104.87 84.74" stroke="#000000" stroke-width="1" fill="none"></path></g></g><mask></mask></svg>